<svg id="Logo" xmlns="http://www.w3.org/2000/svg" viewBox="0 0 2048 700"><defs><style>.cls-1{fill:#cd4721;}.cls-2{fill:#fafafa;}</style></defs><g id="Stripe"><path class="cls-1" d="M173.64,414.68V347.24H1874.36V482.12H173.64Z"/></g><g id="No"><path id="H" class="cls-2" d="M258.79,350.78V29.08H398.32V281.79H579.71V27.53H719.24V670.92H579.71V416.66H398.32V672.47H258.79Z"/><path id="E" class="cls-2" d="M789,350.78V29.08h348.82V164H928.54V284.89h209.29V419.77H928.54V537.59h209.29V672.47H789Z"/><path id="T" class="cls-2" d="M1331.62,418.21V164h-138V29.08h417.05V164H1471.16V672.47H1331.62Z"/><path id="_." data-name="." class="cls-2" d="M1667.58,671.39c-.62-.47-1.08-30.86-1.08-67.44V537.59H1806V672.47h-68.68C1699.52,672.47,1668.05,672,1667.58,671.39Z"/><path id="_" data-name="!" class="cls-2" d="M1667.58,418.68c-.62-.47-1.08-88.37-1.08-195.34V29.08H1806V419.77h-68.68C1699.52,419.77,1668.05,419.3,1667.58,418.68Z"/></g><g id="Stripe-2" data-name="Stripe"><path class="cls-1" d="M173.64,414.68V347.24H1874.36V482.12H173.64Z"/></g><g id="No-2" data-name="No"><path id="H-2" data-name="H" class="cls-2" d="M258.79,350.78V29.08H398.32V281.79H579.71V27.53H719.24V670.92H579.71V416.66H398.32V672.47H258.79Z"/><path id="E-2" data-name="E" class="cls-2" d="M789,350.78V29.08h348.82V164H928.54V284.89h209.29V419.77H928.54V537.59h209.29V672.47H789Z"/><path id="T-2" data-name="T" class="cls-2" d="M1331.62,418.21V164h-138V29.08h417.05V164H1471.16V672.47H1331.62Z"/><path id="_.-2" data-name="." class="cls-2" d="M1667.58,671.39c-.62-.47-1.08-30.86-1.08-67.44V537.59H1806V672.47h-68.68C1699.52,672.47,1668.05,672,1667.58,671.39Z"/><path id="_2" data-name="!" class="cls-2" d="M1667.58,418.68c-.62-.47-1.08-88.37-1.08-195.34V29.08H1806V419.77h-68.68C1699.52,419.77,1668.05,419.3,1667.58,418.68Z"/></g></svg>